name analog
datacolumns 19
datarows 61
range 0.367 0.397
endheader
time	ground_force_vx	ground_force_vy	ground_force_vz	ground_force_px	ground_force_py	ground_force_pz	l_ground_force_vx	l_ground_force_vy	l_ground_force_vz	l_ground_force_px	l_ground_force_py	l_ground_force_pz	ground_torque_x	ground_torque_y	ground_torque_z	l_ground_torque_x	l_ground_torque_y	l_ground_torque_z
0.367	-0.0	-0.0	-0.0	5.129151344299316	-11.319561004638672	-810.8357543945312	-0.0	-0.0	-0.0	-34.88880157470703	16.29924201965332	75.21270751953125	-0.0	-0.0	-0.0	-0.0	-0.0	-0.0
0.3675	-0.0	-0.0	-0.0	5.411349296569824	-11.85434341430664	-814.3748779296875	-0.0	-0.0	-0.0	-34.56019973754883	15.954024314880373	76.39981079101562	-0.0	-0.0	-0.0	-0.0	-0.0	-0.0
0.368	-0.0	-0.0	-0.0	5.47112512588501	-13.04365348815918	-817.5535888671875	-0.0	-0.0	-0.0	-35.08428955078125	16.23851776123047	75.63409423828125	-0.0	-0.0	-0.0	-0.0	-0.0	-0.0
0.3685	-0.0	-0.0	-0.0	4.578988075256348	-13.086103439331056	-819.1400756835938	-0.0	-0.0	-0.0	-34.97826385498047	16.23847007751465	77.27478790283203	-0.0	-0.0	-0.0	-0.0	-0.0	-0.0
0.369	-0.0	-0.0	-0.0	3.1986701488494877	-13.474945068359377	-822.3184204101562	-0.0	-0.0	-0.0	-34.77029800415039	16.539806365966797	74.04183197021484	-0.0	-0.0	-0.0	-0.0	-0.0	-0.0
0.3695	-0.0	-0.0	-0.0	1.263497829437256	-13.473228454589844	-822.9168090820312	-0.0	-0.0	-0.0	-34.637451171875	16.374473571777344	75.21742248535156	-0.0	-0.0	-0.0	-0.0	-0.0	-0.0
0.37	-0.0	-0.0	-0.0	0.4169848561286926	-12.82226276397705	-820.1989135742188	-0.0	-0.0	-0.0	-34.678306579589844	16.194534301757812	77.57078552246094	-0.0	-0.0	-0.0	-0.0	-0.0	-0.0
0.3705	-0.0	-0.0	-0.0	-0.4460525512695312	-10.96303939819336	-824.7413940429688	-0.0	-0.0	-0.0	-34.799346923828125	16.11907958984375	75.22824096679688	-0.0	-0.0	-0.0	-0.0	-0.0	-0.0
0.371	-0.0	-0.0	-0.0	-1.2803237438201904	-9.847681045532228	-823.5011596679688	-0.0	-0.0	-0.0	-34.767459869384766	16.212121963500977	74.22030639648438	-0.0	-0.0	-0.0	-0.0	-0.0	-0.0
0.3715	-0.0	-0.0	-0.0	-2.466470956802368	-9.137129783630373	-823.9015502929688	-0.0	-0.0	-0.0	-34.874420166015625	16.331079483032227	75.91851043701172	-0.0	-0.0	-0.0	-0.0	-0.0	-0.0
0.372	-0.0	-0.0	-0.0	-4.23612117767334	-9.401880264282228	-825.0391845703125	-0.0	-0.0	-0.0	-34.60608673095703	16.147844314575195	75.8619384765625	-0.0	-0.0	-0.0	-0.0	-0.0	-0.0
0.3725	-0.0	-0.0	-0.0	-5.9166364669799805	-10.367843627929688	-824.435791015625	-0.0	-0.0	-0.0	-34.602500915527344	15.935375213623049	76.11468505859375	-0.0	-0.0	-0.0	-0.0	-0.0	-0.0
0.373	-0.0	-0.0	-0.0	-6.823039531707764	-11.204888343811035	-824.5047607421875	-0.0	-0.0	-0.0	-34.756500244140625	15.967717170715332	74.738037109375	-0.0	-0.0	-0.0	-0.0	-0.0	-0.0
0.3735	-0.0	-0.0	-0.0	-7.379208564758301	-11.03787326812744	-822.146240234375	-0.0	-0.0	-0.0	-34.94977569580078	16.104564666748047	75.52625274658203	-0.0	-0.0	-0.0	-0.0	-0.0	-0.0
0.374	-0.0	-0.0	-0.0	-7.4223246574401855	-10.371221542358398	-823.1494140625	-0.0	-0.0	-0.0	-34.78514099121094	16.227352142333984	76.04515075683594	-0.0	-0.0	-0.0	-0.0	-0.0	-0.0
0.3745	-0.0	-0.0	-0.0	-6.779998779296875	-9.091300964355469	-823.134765625	-0.0	-0.0	-0.0	-34.37598419189453	16.544601440429688	75.56591796875	-0.0	-0.0	-0.0	-0.0	-0.0	-0.0
0.375	-0.0	-0.0	-0.0	-6.540818691253662	-8.236127853393555	-824.2503662109375	-0.0	-0.0	-0.0	-34.48399353027344	16.01459503173828	75.5658187866211	-0.0	-0.0	-0.0	-0.0	-0.0	-0.0
0.3755	-0.0	-0.0	-0.0	-6.694869995117188	-7.1871337890625	-830.67919921875	-0.0	-0.0	-0.0	-34.92177200317383	16.180330276489258	73.92156982421875	-0.0	-0.0	-0.0	-0.0	-0.0	-0.0
0.376	-0.0	-0.0	-0.0	-6.855058670043945	-7.38368558883667	-839.155517578125	-0.0	-0.0	-0.0	-35.1712646484375	15.87217617034912	76.3223876953125	-0.0	-0.0	-0.0	-0.0	-0.0	-0.0
0.3765	-0.0	-0.0	-0.0	-6.545046329498291	-7.576084136962891	-846.8695678710938	-0.0	-0.0	-0.0	-34.81341552734375	16.402769088745117	76.34200286865234	-0.0	-0.0	-0.0	-0.0	-0.0	-0.0
0.377	-0.0	-0.0	-0.0	-6.146246910095215	-7.280527591705322	-851.2752685546875	-0.0	-0.0	-0.0	-34.61514663696289	16.06223487854004	76.32173156738281	-0.0	-0.0	-0.0	-0.0	-0.0	-0.0
0.3775	-0.0	-0.0	-0.0	-8.366865158081055	-7.135293006896973	-854.8067626953125	-0.0	-0.0	-0.0	-35.006248474121094	16.062349319458008	75.4547119140625	-0.0	-0.0	-0.0	-0.0	-0.0	-0.0
0.378	-0.0	-0.0	-0.0	-9.770255088806152	-6.595649719238281	-861.53662109375	-0.0	-0.0	-0.0	-34.82730865478516	15.904955863952637	75.99208068847656	-0.0	-0.0	-0.0	-0.0	-0.0	-0.0
0.3785	-0.0	-0.0	-0.0	-12.573519706726074	-5.620373249053955	-865.6644897460938	-0.0	-0.0	-0.0	-35.252445220947266	16.554412841796875	77.23224639892578	-0.0	-0.0	-0.0	-0.0	-0.0	-0.0
0.379	-0.0	-0.0	-0.0	-15.344207763671877	-4.484435558319092	-866.9801635742188	-0.0	-0.0	-0.0	-34.62042999267578	16.270519256591797	75.93842315673828	-0.0	-0.0	-0.0	-0.0	-0.0	-0.0
0.3795	-0.0	-0.0	-0.0	-17.73342514038086	-4.049764633178711	-868.6351318359375	-0.0	-0.0	-0.0	-34.89496612548828	16.068872451782227	75.32161712646484	-0.0	-0.0	-0.0	-0.0	-0.0	-0.0
0.38	-0.0	-0.0	-0.0	-19.352937698364254	-3.2978248596191406	-872.5519409179688	-0.0	-0.0	-0.0	-34.785499572753906	16.152761459350586	77.04652404785156	-0.0	-0.0	-0.0	-0.0	-0.0	-0.0
0.3805	-0.0	-0.0	-0.0	-20.75233268737793	-3.283963680267334	-873.900634765625	-0.0	-0.0	-0.0	-34.77892303466797	15.924625396728516	75.85983276367188	-0.0	-0.0	-0.0	-0.0	-0.0	-0.0
0.381	-0.0	-0.0	-0.0	-20.93846893310547	-2.776886463165283	-875.42333984375	-0.0	-0.0	-0.0	-34.75125503540039	16.256765365600586	76.34526824951172	-0.0	-0.0	-0.0	-0.0	-0.0	-0.0
0.3815	-0.0	-0.0	-0.0	-22.34286117553711	-3.058046340942383	-875.7767944335938	-0.0	-0.0	-0.0	-34.73058319091797	16.284503936767578	74.91466522216797	-0.0	-0.0	-0.0	-0.0	-0.0	-0.0
0.382	-0.0	-0.0	-0.0	-21.83626937866211	-3.153619766235352	-874.8526000976562	-0.0	-0.0	-0.0	-34.72359848022461	16.346887588500977	75.83379364013672	-0.0	-0.0	-0.0	-0.0	-0.0	-0.0
0.3825	-0.0	-0.0	-0.0	-21.65093994140625	-2.3173904418945312	-871.1316528320312	-0.0	-0.0	-0.0	-34.90986633300781	16.401988983154297	75.69833374023438	-0.0	-0.0	-0.0	-0.0	-0.0	-0.0
0.383	-0.0	-0.0	-0.0	-23.297666549682617	0.0411331765353679	-868.9856567382812	-0.0	-0.0	-0.0	-34.82666015625	16.042064666748047	75.37164306640625	-0.0	-0.0	-0.0	-0.0	-0.0	-0.0
0.3835	-0.0	-0.0	-0.0	-23.922101974487305	2.0155625343322754	-870.3717651367188	-0.0	-0.0	-0.0	-34.758487701416016	16.104564666748047	75.91252136230469	-0.0	-0.0	-0.0	-0.0	-0.0	-0.0
0.384	-0.0	-0.0	-0.0	-25.130067825317383	2.9958462715148926	-869.9362182617188	-0.0	-0.0	-0.0	-34.97826385498047	16.535112380981445	75.29486846923828	-0.0	-0.0	-0.0	-0.0	-0.0	-0.0
0.3845	-0.0	-0.0	-0.0	-25.85741806030273	3.9972500801086426	-870.6179809570312	-0.0	-0.0	-0.0	-34.7586555480957	16.284503936767578	74.91243743896484	-0.0	-0.0	-0.0	-0.0	-0.0	-0.0
0.385	-0.0	-0.0	-0.0	-25.90588760375977	3.654346466064453	-868.5770874023438	-0.0	-0.0	-0.0	-34.82639694213867	16.0281982421875	75.75260162353516	-0.0	-0.0	-0.0	-0.0	-0.0	-0.0
0.3855	-0.0	-0.0	-0.0	-25.30079460144043	3.625056266784668	-866.4577026367188	-0.0	-0.0	-0.0	-35.21965789794922	16.090999603271484	75.75274658203125	-0.0	-0.0	-0.0	-0.0	-0.0	-0.0
0.386	-0.0	-0.0	-0.0	-24.876192092895508	3.12512731552124	-862.818603515625	-0.0	-0.0	-0.0	-34.929222106933594	16.131664276123047	76.31517791748047	-0.0	-0.0	-0.0	-0.0	-0.0	-0.0
0.3865	-0.0	-0.0	-0.0	-24.613903045654297	3.8947577476501465	-862.1447143554688	-0.0	-0.0	-0.0	-34.669578552246094	15.888702392578123	76.06919860839844	-0.0	-0.0	-0.0	-0.0	-0.0	-0.0
0.387	-0.0	-0.0	-0.0	-25.000831604003903	4.759232044219971	-860.4862670898438	-0.0	-0.0	-0.0	-34.826141357421875	16.27103042602539	76.45500946044922	-0.0	-0.0	-0.0	-0.0	-0.0	-0.0
0.3875	-0.0	-0.0	-0.0	-24.635555267333984	4.969383239746094	-855.6681518554688	-0.0	-0.0	-0.0	-34.62467575073242	16.311431884765625	74.31349182128906	-0.0	-0.0	-0.0	-0.0	-0.0	-0.0
0.388	-0.0	-0.0	-0.0	-24.622100830078125	5.78007173538208	-854.6236572265625	-0.0	-0.0	-0.0	-34.66047668457031	16.244226455688477	75.99950408935547	-0.0	-0.0	-0.0	-0.0	-0.0	-0.0
0.3885	-0.0	-0.0	-0.0	-24.45705795288086	5.918269157409668	-850.0158081054688	-0.0	-0.0	-0.0	-34.81265640258789	16.13134002685547	76.75407409667969	-0.0	-0.0	-0.0	-0.0	-0.0	-0.0
0.389	-0.0	-0.0	-0.0	-24.836294174194336	5.766781330108643	-847.1199951171875	-0.0	-0.0	-0.0	-34.88880157470703	16.29787254333496	74.66258239746094	-0.0	-0.0	-0.0	-0.0	-0.0	-0.0
0.3895	-0.0	-0.0	-0.0	-23.98430633544922	5.294585227966309	-844.753662109375	-0.0	-0.0	-0.0	-34.95175552368164	16.18454360961914	75.64967346191406	-0.0	-0.0	-0.0	-0.0	-0.0	-0.0
0.39	-0.0	-0.0	-0.0	-24.113405227661133	4.657550811767578	-840.215087890625	-0.0	-0.0	-0.0	-34.633644104003906	16.40105628967285	75.65011596679688	-0.0	-0.0	-0.0	-0.0	-0.0	-0.0
0.3905	-0.0	-0.0	-0.0	-23.93491554260254	4.063819408416748	-834.9173583984375	-0.0	-0.0	-0.0	-35.05453872680664	16.247562408447266	75.85737609863281	-0.0	-0.0	-0.0	-0.0	-0.0	-0.0
0.391	-0.0	-0.0	-0.0	-24.31818580627441	4.08677864074707	-831.333251953125	-0.0	-0.0	-0.0	-34.7493782043457	16.437965393066406	74.70116424560547	-0.0	-0.0	-0.0	-0.0	-0.0	-0.0
0.3915	-0.0	-0.0	-0.0	-24.916120529174805	3.8457894325256343	-827.04296875	-0.0	-0.0	-0.0	-35.21796417236328	15.87669563293457	76.35308837890625	-0.0	-0.0	-0.0	-0.0	-0.0	-0.0
0.392	-0.0	-0.0	-0.0	-25.23630142211914	4.060564994812012	-823.6676635742188	-0.0	-0.0	-0.0	-34.8386116027832	16.155044555664062	75.35202026367188	-0.0	-0.0	-0.0	-0.0	-0.0	-0.0
0.3925	-0.0	-0.0	-0.0	-25.676700592041016	4.063388824462891	-823.7196655273438	-0.0	-0.0	-0.0	-35.24457931518555	16.130861282348633	75.3602066040039	-0.0	-0.0	-0.0	-0.0	-0.0	-0.0
0.393	-0.0	-0.0	-0.0	-24.61151695251465	3.1195640563964844	-823.8131103515625	-0.0	-0.0	-0.0	-34.735958099365234	16.29761505126953	76.10547637939453	-0.0	-0.0	-0.0	-0.0	-0.0	-0.0
0.3935	-0.0	-0.0	-0.0	-24.11297035217285	2.228260040283203	-823.1589965820312	-0.0	-0.0	-0.0	-35.118186950683594	16.042278289794922	75.4547119140625	-0.0	-0.0	-0.0	-0.0	-0.0	-0.0
0.394	-0.0	-0.0	-0.0	-24.176048278808597	0.9934741258621216	-820.0321655273438	-0.0	-0.0	-0.0	-34.46747970581055	16.335302352905273	75.4547119140625	-0.0	-0.0	-0.0	-0.0	-0.0	-0.0
0.3945	-0.0	-0.0	-0.0	-23.07949447631836	0.1503729224205017	-819.7305908203125	-0.0	-0.0	-0.0	-35.130130767822266	16.2324275970459	74.55875396728516	-0.0	-0.0	-0.0	-0.0	-0.0	-0.0
0.395	-0.0	-0.0	-0.0	-21.537038803100582	-1.197588324546814	-817.8106079101562	-0.0	-0.0	-0.0	-35.169189453125	16.387454986572266	75.55598449707031	-0.0	-0.0	-0.0	-0.0	-0.0	-0.0
0.3955	-0.0	-0.0	-0.0	-19.572954177856445	-2.06294846534729	-816.9051513671875	-0.0	-0.0	-0.0	-34.81223678588867	16.361507415771484	74.5535888671875	-0.0	-0.0	-0.0	-0.0	-0.0	-0.0
0.396	-0.0	-0.0	-0.0	-16.77032470703125	-2.5085628032684326	-820.7340087890625	-0.0	-0.0	-0.0	-34.7741584777832	15.898770332336426	75.75523376464844	-0.0	-0.0	-0.0	-0.0	-0.0	-0.0
0.3965	-0.0	-0.0	-0.0	-14.540326118469238	-2.674898386001587	-821.5985717773438	-0.0	-0.0	-0.0	-34.939815521240234	15.95040512084961	73.9020767211914	-0.0	-0.0	-0.0	-0.0	-0.0	-0.0
0.397	-0.0	-0.0	-0.0	-12.438891410827637	-3.1829638481140137	-820.9940795898438	-0.0	-0.0	-0.0	-35.00387954711914	16.515769958496094	74.10192108154297	-0.0	-0.0	-0.0	-0.0	-0.0	-0.0
